<svg width="128" height="122" viewBox="0 0 128 122" fill="none" xmlns="http://www.w3.org/2000/svg">
<path d="M88.2563 21.4531H23.3086V120.263H88.2563V21.4531Z" fill="white"/>
<path fill-rule="evenodd" clip-rule="evenodd" d="M22.377 21.4474C22.377 20.9328 22.7941 20.5156 23.3088 20.5156H88.2565C88.7711 20.5156 89.1883 20.9328 89.1883 21.4474V120.257C89.1883 120.772 88.7711 121.189 88.2565 121.189H23.3088C22.7941 121.189 22.377 120.772 22.377 120.257V21.4474ZM24.2406 22.3793V119.326H87.3247V22.3793H24.2406Z" fill="#3C4043"/>
<path fill-rule="evenodd" clip-rule="evenodd" d="M31.8828 88.424C31.8828 87.9094 32.3 87.4922 32.8146 87.4922H56.8928C57.4074 87.4922 57.8246 87.9094 57.8246 88.424C57.8246 88.9386 57.4074 89.3558 56.8928 89.3558H32.8146C32.3 89.3558 31.8828 88.9386 31.8828 88.424Z" fill="#3C4043"/>
<path d="M34.3793 101.825C35.6465 101.825 36.6902 100.8 36.6902 99.514C36.6902 98.2281 35.6652 97.2031 34.3793 97.2031C33.0934 97.2031 32.0684 98.2281 32.0684 99.514C32.0684 100.8 33.112 101.825 34.3793 101.825Z" fill="#FBBC04"/>
<path d="M43.7367 101.825C45.004 101.825 46.0476 100.8 46.0476 99.514C46.0476 98.2281 45.0226 97.2031 43.7367 97.2031C42.4508 97.2031 41.4258 98.2281 41.4258 99.514C41.4258 100.8 42.4508 101.825 43.7367 101.825Z" fill="#FBBC04"/>
<path d="M53.0726 101.825C54.3399 101.825 55.3835 100.8 55.3835 99.514C55.3835 98.2281 54.3585 97.2031 53.0726 97.2031C51.7867 97.2031 50.7617 98.2281 50.7617 99.514C50.7617 100.8 51.8054 101.825 53.0726 101.825Z" fill="#FBBC04"/>
<path d="M79.5364 30.1484H32.0137V77.6712H79.5364V30.1484Z" fill="#D2E3FC"/>
<path d="M126.407 1.625H61.459V100.435H126.407V1.625Z" fill="white"/>
<path fill-rule="evenodd" clip-rule="evenodd" d="M60.5273 1.61932C60.5273 1.10469 60.9445 0.6875 61.4592 0.6875H126.407C126.921 0.6875 127.339 1.10469 127.339 1.61932V100.429C127.339 100.944 126.921 101.361 126.407 101.361H61.4592C60.9445 101.361 60.5273 100.944 60.5273 100.429V1.61932ZM62.391 2.55114V99.4975H125.475V2.55114H62.391Z" fill="#3C4043"/>
<path fill-rule="evenodd" clip-rule="evenodd" d="M70.0312 68.6193C70.0312 68.1047 70.4484 67.6875 70.9631 67.6875H102.887C103.402 67.6875 103.819 68.1047 103.819 68.6193C103.819 69.1339 103.402 69.5511 102.887 69.5511H70.9631C70.4484 69.5511 70.0312 69.1339 70.0312 68.6193Z" fill="#3C4043"/>
<path d="M72.5277 81.7937C73.795 81.7937 74.8386 80.7687 74.8386 79.4828C74.8386 78.1969 73.8136 77.1719 72.5277 77.1719C71.2418 77.1719 70.2168 78.1969 70.2168 79.4828C70.2168 80.7687 71.2604 81.7937 72.5277 81.7937Z" fill="#FBBC04"/>
<path d="M81.8832 81.7937C83.1505 81.7937 84.1941 80.7687 84.1941 79.4828C84.1941 78.1969 83.1691 77.1719 81.8832 77.1719C80.5973 77.1719 79.5723 78.1969 79.5723 79.4828C79.5723 80.7687 80.5973 81.7937 81.8832 81.7937Z" fill="#FBBC04"/>
<path d="M91.2386 81.7937C92.5059 81.7937 93.5496 80.7687 93.5496 79.4828C93.5496 78.1969 92.5246 77.1719 91.2386 77.1719C89.9527 77.1719 88.9277 78.1969 88.9277 79.4828C88.9277 80.7687 89.9714 81.7937 91.2386 81.7937Z" fill="#FBBC04"/>
<path d="M100.577 81.7937C101.844 81.7937 102.887 80.7687 102.887 79.4828C102.887 78.1969 101.862 77.1719 100.577 77.1719C99.2906 77.1719 98.2656 78.1969 98.2656 79.4828C98.2656 80.7687 99.3093 81.7937 100.577 81.7937Z" fill="#FBBC04"/>
<path d="M110.098 81.7937C111.365 81.7937 112.409 80.7687 112.409 79.4828C112.409 78.1969 111.384 77.1719 110.098 77.1719C108.812 77.1719 107.787 78.1969 107.787 79.4828C107.787 80.7687 108.831 81.7937 110.098 81.7937Z" fill="#FBBC04"/>
<path d="M117.702 10.3438H70.1797V57.8665H117.702V10.3438Z" fill="#D2E3FC"/>
<path d="M61.459 100.821L88.2581 105.331V100.821H61.459Z" fill="#3C4043"/>
<path fill-rule="evenodd" clip-rule="evenodd" d="M60.5306 100.745C60.571 100.262 60.9747 99.8906 61.4592 99.8906H88.2583C88.7729 99.8906 89.1901 100.308 89.1901 100.822V105.332C89.1901 105.607 89.0694 105.867 88.86 106.044C88.6507 106.221 88.374 106.297 88.1037 106.251L61.3046 101.741C60.8267 101.661 60.4903 101.228 60.5306 100.745ZM72.6111 101.754L87.3265 104.231V101.754H72.6111Z" fill="#3C4043"/>
<path d="M102.831 47.5377V33.0013C103.744 33.8959 104.639 34.8091 105.552 35.7036L111.665 29.5722L105.384 23.2918C103.931 21.8382 102.03 20.9436 99.9986 20.72L98.1909 20.6641L98.0418 21.2418C97.5759 23.0868 95.9359 24.3727 94.0536 24.3727C92.1713 24.3727 90.5127 23.0868 90.0654 21.2418L89.8231 20.6641H89.2268C86.8227 20.6641 84.5677 21.5959 82.8531 23.3104L76.7031 29.4604L82.8345 35.5732C83.7104 34.7159 84.5863 33.84 85.4622 32.9827V47.5191H102.831V47.5377Z" fill="#34A853"/>
<path d="M23.1233 49.5867C35.4792 49.5867 45.4869 39.5789 45.4869 27.223C45.4869 14.8671 35.4792 4.85938 23.1233 4.85938C10.7674 4.85938 0.759766 14.8671 0.759766 27.223C0.759766 39.5789 10.7674 49.5867 23.1233 49.5867Z" fill="#4285F4"/>
<path fill-rule="evenodd" clip-rule="evenodd" d="M32.2036 23.7331C32.7261 24.3014 32.6889 25.1856 32.1205 25.708C29.1201 28.4662 26.1198 31.2243 23.1008 34.0009C22.5679 34.4911 21.7488 34.4931 21.2135 34.0056C20.1712 33.0563 19.124 32.1069 18.0756 31.1563C17.3406 30.4899 16.6047 29.8227 15.8704 29.1555L9.93378 34.513C9.36069 35.0302 8.47686 34.9849 7.95969 34.4118C7.44251 33.8387 7.48783 32.9549 8.06092 32.4377L14.9377 26.2318C15.4715 25.7501 16.2837 25.7519 16.8153 26.236C17.8576 27.1853 18.9047 28.1347 19.9532 29.0853C20.6851 29.7489 21.4182 30.4136 22.1494 31.078C24.8515 28.593 27.5402 26.1214 30.2287 23.65C30.797 23.1276 31.6812 23.1648 32.2036 23.7331Z" fill="white"/>
<path d="M35.7392 20.2188L27.9492 22.0824L33.8942 28.0274L35.7392 20.2374V20.2188Z" fill="white"/>
<path fill-rule="evenodd" clip-rule="evenodd" d="M36.3166 19.4815C36.5406 19.6582 36.6712 19.9278 36.6712 20.2131V20.2317C36.6712 20.304 36.6628 20.3761 36.6462 20.4465L34.8012 28.2365C34.7233 28.5652 34.4737 28.826 34.1487 28.9182C33.8238 29.0103 33.4744 28.9195 33.2355 28.6806L27.2905 22.7356C27.0519 22.497 26.961 22.1481 27.0527 21.8234C27.1444 21.4987 27.4045 21.249 27.7326 21.1705L35.5226 19.3068C35.8001 19.2405 36.0926 19.3048 36.3166 19.4815ZM29.786 22.5955L33.3725 26.182L34.4884 21.4705L29.786 22.5955Z" fill="white"/>
</svg>
